<svg xmlns="http://www.w3.org/2000/svg" width="213.269" height="190.943" viewBox="0 0 213.269 190.943">
  <g id="Group_25" data-name="Group 25" transform="translate(-81 -311)">
    <g id="Group_1" data-name="Group 1" transform="translate(81 454.55)">
      <path id="Path_1" data-name="Path 1" d="M205.924,589.019l-14.8,47.06h-4.779L173.93,607.536,161.453,636.08h-4.78l-14.736-46.928h9.625l8.563,26.949,11.881-27.414h3.782L187.738,616.1q2.123-6.636,4.281-13.542t4.281-13.54Z" transform="translate(-141.937 -588.687)" fill="#f5f5f5"/>
      <path id="Path_2" data-name="Path 2" d="M390.75,588.687l20.909,46.928H401.5l-3.784-8.5H380q-.865,1.993-1.892,4.281t-1.826,4.216H366.191l20.643-46.928Zm2.855,29.2-4.779-10.752-4.779,10.752Z" transform="translate(-288.663 -588.687)" fill="#f5f5f5"/>
      <path id="Path_3" data-name="Path 3" d="M578.484,611.735l20.71,24.759H587.18l-14.868-17.923q-.6.733-1.262,1.494t-1.394,1.494v14.936H560.5V590.031h9.16v17.588l15.8-17.588h12.414Z" transform="translate(-415.794 -589.566)" fill="#f5f5f5"/>
      <path id="Path_4" data-name="Path 4" d="M732.336,636.494V590.031h9.16v46.463Z" transform="translate(-528.227 -589.566)" fill="#f5f5f5"/>
    </g>
    <g id="Group_2" data-name="Group 2" transform="translate(115.129 311)">
      <path id="Path_5" data-name="Path 5" d="M592.8,272.028l-20.3-20.273c-5.034-4.453-9.016-2.461-9.016,4.785v64.385l29.344-29.344A13.863,13.863,0,0,0,592.8,272.028Z" transform="translate(-451.879 -223.143)" fill="#ffd740"/>
      <path id="Path_6" data-name="Path 6" d="M274.021,320.925V256.54c0-7.246-3.983-9.237-9.016-4.785l-20.3,20.273a13.863,13.863,0,0,0-.028,19.554l29.344,29.344h0Z" transform="translate(-240.656 -223.143)" fill="#ffd740"/>
      <path id="Path_7" data-name="Path 7" d="M405.649,261.449c-5.179-5.151-9.438-15.149-9.766-22.668V178.215a4.757,4.757,0,0,0-4.757-4.757h-29.6a4.76,4.76,0,0,0-4.76,4.757V238.4c-.2,7.561-4.515,17.811-9.78,23.049v.028l-4.031,4.021-5.742,5.742,5.742,5.742L346.988,281l.138.138a13.884,13.884,0,0,0,19.187.111l10.012-10.012,10.205,10.205a13.883,13.883,0,0,0,18.98-.3l.138-.138,9.791-9.763-9.791-9.763Z" transform="translate(-303.833 -173.458)" fill="#ffd740"/>
    </g>
  </g>
</svg>
